<?xml version="1.0" encoding="UTF-8"?>
<!DOCTYPE svg PUBLIC "-//W3C//DTD SVG 1.1//EN" "http://www.w3.org/Graphics/SVG/1.1/DTD/svg11.dtd">
<svg xmlns="http://www.w3.org/2000/svg" version="1.1" width="207px" height="106px" style="shape-rendering:geometricPrecision; text-rendering:geometricPrecision; image-rendering:optimizeQuality; fill-rule:evenodd; clip-rule:evenodd" xmlns:xlink="http://www.w3.org/1999/xlink">
<g><path style="opacity:1" fill="#e3b858" d="M -0.5,-0.5 C -0.166667,-0.5 0.166667,-0.5 0.5,-0.5C 0.5,0.166667 0.5,0.833333 0.5,1.5C 0.5,35.8333 0.5,70.1667 0.5,104.5C 1.5,104.5 2.5,104.5 3.5,104.5C 70.8333,104.5 138.167,104.5 205.5,104.5C 205.5,69.8333 205.5,35.1667 205.5,0.5C 205.5,0.166667 205.5,-0.166667 205.5,-0.5C 205.833,-0.5 206.167,-0.5 206.5,-0.5C 206.5,34.8333 206.5,70.1667 206.5,105.5C 137.5,105.5 68.5,105.5 -0.5,105.5C -0.5,70.1667 -0.5,34.8333 -0.5,-0.5 Z"/></g>
<g><path style="opacity:1" fill="#efaf2b" d="M 205.5,0.5 C 205.5,35.1667 205.5,69.8333 205.5,104.5C 138.167,104.5 70.8333,104.5 3.5,104.5C 3.5,104.167 3.5,103.833 3.5,103.5C 70.5,103.5 137.5,103.5 204.5,103.5C 204.5,73.5 204.5,43.5 204.5,13.5C 204.665,10.1501 204.498,6.81677 204,3.5C 203.5,3 203,2.5 202.5,2C 136.501,1.5 70.5008,1.33334 4.5,1.5C 3.10008,2.09982 2.10008,3.09982 1.5,4.5C 1.5,3.5 1.5,2.5 1.5,1.5C 69.3313,0.500826 137.331,0.167493 205.5,0.5 Z"/></g>
<g><path style="opacity:1" fill="#f6b11f" d="M 4.5,1.5 C 3.33162,5.17018 3.33162,8.83685 4.5,12.5C 2.7466,15.9423 2.2466,19.609 3,23.5C 3.74026,21.6813 4.90693,20.3479 6.5,19.5C 6.5,19.8333 6.5,20.1667 6.5,20.5C 6.5,43.8333 6.5,67.1667 6.5,90.5C 5.29208,89.7659 3.95875,89.4326 2.5,89.5C 2.3347,93.1817 2.50137,96.8484 3,100.5C 3.73869,101.574 4.73869,102.241 6,102.5C 71.0011,102.49 136.168,102.49 201.5,102.5C 201.851,99.7623 202.518,97.0956 203.5,94.5C 202.833,93.8333 202.167,93.1667 201.5,92.5C 202.348,90.5914 202.682,88.5914 202.5,86.5C 200.473,86.3379 198.473,86.5045 196.5,87C 197.357,87.6891 198.023,88.5224 198.5,89.5C 196.657,89.7552 194.657,89.9219 192.5,90C 192.167,90.3333 191.833,90.6667 191.5,91C 192.624,91.2492 193.624,91.7492 194.5,92.5C 194,92.8333 193.5,93.1667 193,93.5C 191.374,92.9818 189.707,92.6484 188,92.5C 180.925,94.303 173.759,94.803 166.5,94C 165.944,93.6174 165.611,93.1174 165.5,92.5C 179.296,95.1634 190.796,91.4967 200,81.5C 200.464,80.9056 200.631,80.2389 200.5,79.5C 200.5,78.8333 200.5,78.1667 200.5,77.5C 202.176,76.8166 202.843,75.4832 202.5,73.5C 203.87,68.1967 203.537,62.8634 201.5,57.5C 202.82,54.572 203.486,51.2386 203.5,47.5C 203.333,44.1667 203.167,40.8333 203,37.5C 202.667,37.1667 202.333,36.8333 202,36.5C 199.842,37.8259 198.008,39.4925 196.5,41.5C 195.264,40.7542 193.93,40.4208 192.5,40.5C 195.021,39.0087 197.354,37.342 199.5,35.5C 199.5,34.1667 199.5,32.8333 199.5,31.5C 199.5,29.8333 199.5,28.1667 199.5,26.5C 200.208,28.3779 201.374,30.0445 203,31.5C 203.172,25.3193 203.672,19.3193 204.5,13.5C 204.5,43.5 204.5,73.5 204.5,103.5C 137.5,103.5 70.5,103.5 3.5,103.5C 1.50704,70.8502 0.840377,37.8502 1.5,4.5C 2.10008,3.09982 3.10008,2.09982 4.5,1.5 Z"/></g>
<g><path style="opacity:1" fill="#e6b752" d="M 200.5,79.5 C 200.631,80.2389 200.464,80.9056 200,81.5C 190.796,91.4967 179.296,95.1634 165.5,92.5C 165.5,92.1667 165.5,91.8333 165.5,91.5C 170.179,91.6658 174.845,91.4992 179.5,91C 182.104,90.6097 184.438,89.7763 186.5,88.5C 191.443,87.3544 195.443,84.6878 198.5,80.5C 199.167,80.1667 199.833,79.8333 200.5,79.5 Z"/></g>
<g><path style="opacity:1" fill="#fee39e" d="M 115.5,62.5 C 115.833,62.5 116.167,62.5 116.5,62.5C 116.5,71.5 116.5,80.5 116.5,89.5C 121.5,89.5 126.5,89.5 131.5,89.5C 132.167,89.5 132.833,89.5 133.5,89.5C 128.025,90.4889 122.358,90.8222 116.5,90.5C 115.833,90.5 115.5,90.1667 115.5,89.5C 115.5,80.5 115.5,71.5 115.5,62.5 Z"/></g>
<g><path style="opacity:1" fill="#fffada" d="M 116.5,62.5 C 117.493,70.9839 117.826,79.6506 117.5,88.5C 122.167,88.5 126.833,88.5 131.5,88.5C 131.5,88.8333 131.5,89.1667 131.5,89.5C 126.5,89.5 121.5,89.5 116.5,89.5C 116.5,80.5 116.5,71.5 116.5,62.5 Z"/></g>
<g><path style="opacity:1" fill="#fef9d3" d="M 148.5,78.5 C 149.167,78.5 149.833,78.5 150.5,78.5C 150.585,80.9288 151.585,82.9288 153.5,84.5C 162.678,89.4559 172.345,90.7892 182.5,88.5C 183.833,88.5 185.167,88.5 186.5,88.5C 184.438,89.7763 182.104,90.6097 179.5,91C 174.845,91.4992 170.179,91.6658 165.5,91.5C 162.061,89.7957 158.395,88.4624 154.5,87.5C 153.564,86.0256 152.23,85.0256 150.5,84.5C 150.267,82.9382 149.6,81.6049 148.5,80.5C 148.5,79.8333 148.5,79.1667 148.5,78.5 Z"/></g>
<g><path style="opacity:1" fill="#fef9d1" d="M 197.5,77.5 C 198.167,77.5 198.833,77.5 199.5,77.5C 198.89,78.391 198.557,79.391 198.5,80.5C 195.443,84.6878 191.443,87.3544 186.5,88.5C 188,86.8214 189.833,85.4881 192,84.5C 192.483,83.552 192.649,82.552 192.5,81.5C 195.95,82.2436 197.616,80.9103 197.5,77.5 Z"/></g>
<g><path style="opacity:1" fill="#f5d17b" d="M 199.5,77.5 C 199.833,77.5 200.167,77.5 200.5,77.5C 200.5,78.1667 200.5,78.8333 200.5,79.5C 199.833,79.8333 199.167,80.1667 198.5,80.5C 198.557,79.391 198.89,78.391 199.5,77.5 Z"/></g>
<g><path style="opacity:1" fill="#ebb033" d="M 42.5,72.5 C 43.8333,72.5 45.1667,72.5 46.5,72.5C 46.0825,73.2216 45.4158,73.7216 44.5,74C 38.8431,74.4994 33.1764,74.6661 27.5,74.5C 27.5,80.1667 27.5,85.8333 27.5,91.5C 20.3134,91.8245 13.3134,91.4912 6.5,90.5C 13.0221,90.8235 19.3554,90.4902 25.5,89.5C 26.4881,84.3595 26.8214,79.0262 26.5,73.5C 32.0262,73.8214 37.3595,73.4881 42.5,72.5 Z"/></g>
<g><path style="opacity:1" fill="#fff1b4" d="M 42.5,71.5 C 42.5,71.8333 42.5,72.1667 42.5,72.5C 36.8333,72.5 31.1667,72.5 25.5,72.5C 25.5,78.1667 25.5,83.8333 25.5,89.5C 24.1667,89.5 22.8333,89.5 21.5,89.5C 21.5,89.1667 21.5,88.8333 21.5,88.5C 21.8333,88.5 22.1667,88.5 22.5,88.5C 24.4417,83.9443 25.1083,78.9443 24.5,73.5C 30.0738,71.5467 36.0738,70.88 42.5,71.5 Z"/></g>
<g><path style="opacity:1" fill="#fefcdb" d="M 164.5,75.5 C 165.391,76.1098 166.391,76.4431 167.5,76.5C 170.962,77.4816 174.629,77.815 178.5,77.5C 178.5,77.8333 178.5,78.1667 178.5,78.5C 174.317,79.8111 169.984,79.8111 165.5,78.5C 164.873,77.5832 164.539,76.5832 164.5,75.5 Z"/></g>
<g><path style="opacity:1" fill="#e1b859" d="M 42.5,72.5 C 37.3595,73.4881 32.0262,73.8214 26.5,73.5C 26.8214,79.0262 26.4881,84.3595 25.5,89.5C 25.5,83.8333 25.5,78.1667 25.5,72.5C 31.1667,72.5 36.8333,72.5 42.5,72.5 Z"/></g>
<g><path style="opacity:1" fill="#fffce0" d="M 24.5,73.5 C 25.1083,78.9443 24.4417,83.9443 22.5,88.5C 22.8468,83.3196 23.5135,78.3196 24.5,73.5 Z"/></g>
<g><path style="opacity:1" fill="#e4b851" d="M 201.5,63.5 C 202.479,66.6248 202.813,69.9581 202.5,73.5C 202.843,75.4832 202.176,76.8166 200.5,77.5C 201.229,72.8696 201.563,68.2029 201.5,63.5 Z"/></g>
<g><path style="opacity:1" fill="#fcfdf1" d="M 183.5,67.5 C 184.649,67.7911 185.316,68.6244 185.5,70C 184.875,71.8405 184.708,73.6739 185,75.5C 188.053,78.1098 191.553,79.7765 195.5,80.5C 195.285,78.8212 195.952,77.8212 197.5,77.5C 197.616,80.9103 195.95,82.2436 192.5,81.5C 192.649,82.552 192.483,83.552 192,84.5C 189.833,85.4881 188,86.8214 186.5,88.5C 185.167,88.5 183.833,88.5 182.5,88.5C 184.739,87.4581 186.905,86.1247 189,84.5C 189.49,83.2068 189.657,81.8734 189.5,80.5C 188.127,80.6567 186.793,80.49 185.5,80C 186.622,78.3866 186.122,77.2199 184,76.5C 182.556,78.1554 180.722,78.822 178.5,78.5C 178.5,78.1667 178.5,77.8333 178.5,77.5C 180.17,77.2488 181.67,76.5822 183,75.5C 183.497,72.854 183.664,70.1873 183.5,67.5 Z"/></g>
<g><path style="opacity:1" fill="#f8e3a5" d="M 181.5,66.5 C 182.167,66.8333 182.833,67.1667 183.5,67.5C 183.664,70.1873 183.497,72.854 183,75.5C 181.67,76.5822 180.17,77.2488 178.5,77.5C 179.315,76.1634 180.482,75.1634 182,74.5C 182.602,71.7795 182.435,69.1128 181.5,66.5 Z"/></g>
<g><path style="opacity:1" fill="#e8b546" d="M 146.5,73.5 C 146.171,76.2282 146.837,78.5615 148.5,80.5C 149.6,81.6049 150.267,82.9382 150.5,84.5C 149.395,83.3995 148.062,82.7329 146.5,82.5C 145.385,80.6931 144.719,78.6931 144.5,76.5C 144.64,74.9704 145.307,73.9704 146.5,73.5 Z"/></g>
<g><path style="opacity:1" fill="#e9b33f" d="M 180.5,66.5 C 180.833,66.5 181.167,66.5 181.5,66.5C 182.435,69.1128 182.602,71.7795 182,74.5C 180.482,75.1634 179.315,76.1634 178.5,77.5C 174.629,77.815 170.962,77.4816 167.5,76.5C 167.027,75.0937 166.027,74.427 164.5,74.5C 164.5,74.1667 164.5,73.8333 164.5,73.5C 167.563,73.8635 170.563,74.5302 173.5,75.5C 175.818,75.0029 178.152,74.6695 180.5,74.5C 180.5,71.8333 180.5,69.1667 180.5,66.5 Z"/></g>
<g><path style="opacity:1" fill="#ebc878" d="M 164.5,75.5 C 164.5,75.1667 164.5,74.8333 164.5,74.5C 166.027,74.427 167.027,75.0937 167.5,76.5C 166.391,76.4431 165.391,76.1098 164.5,75.5 Z"/></g>
<g><path style="opacity:1" fill="#fcfce8" d="M 161.5,72.5 C 162.5,73.1667 163.5,73.8333 164.5,74.5C 164.5,74.8333 164.5,75.1667 164.5,75.5C 162.076,75.8076 159.743,75.4742 157.5,74.5C 158.999,73.0962 158.666,72.4296 156.5,72.5C 154.423,73.9371 152.09,74.6038 149.5,74.5C 149.433,75.9587 149.766,77.2921 150.5,78.5C 149.833,78.5 149.167,78.5 148.5,78.5C 147.272,76.9902 147.272,75.4902 148.5,74C 151.65,72.8652 154.817,71.6985 158,70.5C 159.303,70.9783 160.469,71.645 161.5,72.5 Z"/></g>
<g><path style="opacity:1" fill="#fbaf16" d="M 71.5,79.5 C 71.1107,82.5533 71.7773,85.22 73.5,87.5C 73.3284,88.4916 73.6618,89.1583 74.5,89.5C 74.5,89.8333 74.5,90.1667 74.5,90.5C 80.5,91.8333 86.5,91.8333 92.5,90.5C 93.1174,90.3893 93.6174,90.056 94,89.5C 94.3473,83.9847 94.8473,78.4847 95.5,73C 95.7483,71.2841 96.415,69.7841 97.5,68.5C 96.7542,67.2638 96.4208,65.9305 96.5,64.5C 102.167,64.5 107.833,64.5 113.5,64.5C 113.334,73.1731 113.5,81.8397 114,90.5C 114.671,91.2524 115.504,91.5858 116.5,91.5C 122.5,91.5 128.5,91.5 134.5,91.5C 136.689,94.1209 139.022,94.1209 141.5,91.5C 143.818,93.5775 146.485,94.4108 149.5,94C 149.167,93.6667 148.833,93.3333 148.5,93C 151.871,91.2834 152.205,88.9501 149.5,86C 148.365,85.2506 147.365,85.4173 146.5,86.5C 147.471,87.9621 147.138,89.2954 145.5,90.5C 144.535,89.086 143.535,88.2526 142.5,88C 142.646,86.2729 143.313,86.1062 144.5,87.5C 145.562,85.9783 146.229,84.3117 146.5,82.5C 148.062,82.7329 149.395,83.3995 150.5,84.5C 152.23,85.0256 153.564,86.0256 154.5,87.5C 157.626,89.9897 161.292,91.323 165.5,91.5C 165.5,91.8333 165.5,92.1667 165.5,92.5C 165.611,93.1174 165.944,93.6174 166.5,94C 173.759,94.803 180.925,94.303 188,92.5C 189.707,92.6484 191.374,92.9818 193,93.5C 193.5,93.1667 194,92.8333 194.5,92.5C 193.624,91.7492 192.624,91.2492 191.5,91C 191.833,90.6667 192.167,90.3333 192.5,90C 194.657,89.9219 196.657,89.7552 198.5,89.5C 198.023,88.5224 197.357,87.6891 196.5,87C 198.473,86.5045 200.473,86.3379 202.5,86.5C 202.682,88.5914 202.348,90.5914 201.5,92.5C 202.167,93.1667 202.833,93.8333 203.5,94.5C 202.518,97.0956 201.851,99.7623 201.5,102.5C 136.168,102.49 71.0011,102.49 6,102.5C 4.73869,102.241 3.73869,101.574 3,100.5C 2.50137,96.8484 2.3347,93.1817 2.5,89.5C 3.95875,89.4326 5.29208,89.7659 6.5,90.5C 13.3134,91.4912 20.3134,91.8245 27.5,91.5C 27.5,85.8333 27.5,80.1667 27.5,74.5C 33.1764,74.6661 38.8431,74.4994 44.5,74C 45.4158,73.7216 46.0825,73.2216 46.5,72.5C 48.1992,72.6602 49.8659,72.4935 51.5,72C 54.249,70.2555 56.9157,68.4221 59.5,66.5C 59.6556,70.1351 60.8223,70.4685 63,67.5C 64,68.8333 65,70.1667 66,71.5C 66.2734,69.8988 66.7734,68.3988 67.5,67C 66.3781,63.5915 66.2114,60.0915 67,56.5C 68.8251,63.0565 68.8251,69.7232 67,76.5C 66.6667,76.1667 66.3333,75.8333 66,75.5C 65.5034,77.8098 65.3367,80.1432 65.5,82.5C 67.1238,82.3601 68.2904,83.0267 69,84.5C 69.7568,82.6854 70.5902,81.0188 71.5,79.5 Z"/></g>
<g><path style="opacity:1" fill="#e1b047" d="M 133.5,89.5 C 133.833,89.5 134.167,89.5 134.5,89.5C 134.5,90.1667 134.5,90.8333 134.5,91.5C 128.5,91.5 122.5,91.5 116.5,91.5C 116.5,91.1667 116.5,90.8333 116.5,90.5C 122.358,90.8222 128.025,90.4889 133.5,89.5 Z"/></g>
<g><path style="opacity:1" fill="#e2b149" d="M 92.5,89.5 C 92.5,89.8333 92.5,90.1667 92.5,90.5C 86.5,91.8333 80.5,91.8333 74.5,90.5C 80.5907,90.7886 86.5907,90.4553 92.5,89.5 Z"/></g>
<g><path style="opacity:1" fill="#f3d17b" d="M 154.5,87.5 C 158.395,88.4624 162.061,89.7957 165.5,91.5C 161.292,91.323 157.626,89.9897 154.5,87.5 Z"/></g>
<g><path style="opacity:1" fill="#fcfdfb" d="M 164.5,75.5 C 164.539,76.5832 164.873,77.5832 165.5,78.5C 169.984,79.8111 174.317,79.8111 178.5,78.5C 180.722,78.822 182.556,78.1554 184,76.5C 186.122,77.2199 186.622,78.3866 185.5,80C 186.793,80.49 188.127,80.6567 189.5,80.5C 189.657,81.8734 189.49,83.2068 189,84.5C 186.905,86.1247 184.739,87.4581 182.5,88.5C 172.345,90.7892 162.678,89.4559 153.5,84.5C 151.585,82.9288 150.585,80.9288 150.5,78.5C 149.766,77.2921 149.433,75.9587 149.5,74.5C 152.09,74.6038 154.423,73.9371 156.5,72.5C 158.666,72.4296 158.999,73.0962 157.5,74.5C 159.743,75.4742 162.076,75.8076 164.5,75.5 Z"/></g>
<g><path style="opacity:1" fill="#f4b125" d="M 114.5,63.5 C 114.174,72.3494 114.507,81.0161 115.5,89.5C 115.5,90.1667 115.833,90.5 116.5,90.5C 116.5,90.8333 116.5,91.1667 116.5,91.5C 115.504,91.5858 114.671,91.2524 114,90.5C 113.5,81.8397 113.334,73.1731 113.5,64.5C 107.833,64.5 102.167,64.5 96.5,64.5C 96.4208,65.9305 96.7542,67.2638 97.5,68.5C 96.415,69.7841 95.7483,71.2841 95.5,73C 94.8473,78.4847 94.3473,83.9847 94,89.5C 93.6174,90.056 93.1174,90.3893 92.5,90.5C 92.5,90.1667 92.5,89.8333 92.5,89.5C 92.5,89.1667 92.5,88.8333 92.5,88.5C 93.4927,80.3501 93.8261,72.0168 93.5,63.5C 100.5,63.5 107.5,63.5 114.5,63.5 Z"/></g>
<g><path style="opacity:1" fill="#fdefb6" d="M 154.5,69.5 C 155.5,69.5 156.5,69.5 157.5,69.5C 159.973,69.0882 161.306,70.0882 161.5,72.5C 160.469,71.645 159.303,70.9783 158,70.5C 154.817,71.6985 151.65,72.8652 148.5,74C 147.272,75.4902 147.272,76.9902 148.5,78.5C 148.5,79.1667 148.5,79.8333 148.5,80.5C 146.837,78.5615 146.171,76.2282 146.5,73.5C 149.682,73.0517 152.349,71.7184 154.5,69.5 Z"/></g>
<g><path style="opacity:1" fill="#e2ad3e" d="M 92.5,62.5 C 100.019,62.175 107.352,62.5084 114.5,63.5C 107.5,63.5 100.5,63.5 93.5,63.5C 93.8261,72.0168 93.4927,80.3501 92.5,88.5C 92.5,79.8333 92.5,71.1667 92.5,62.5 Z"/></g>
<g><path style="opacity:1" fill="#edc86f" d="M 52.5,68.5 C 50.636,70.0138 48.636,71.3472 46.5,72.5C 45.1667,72.5 43.8333,72.5 42.5,72.5C 42.5,72.1667 42.5,71.8333 42.5,71.5C 43.609,71.4431 44.609,71.1098 45.5,70.5C 47.8333,69.8333 50.1667,69.1667 52.5,68.5 Z"/></g>
<g><path style="opacity:1" fill="#fff8d2" d="M 198.5,58.5 C 199.167,59.5 199.833,60.5 200.5,61.5C 201.338,61.8417 201.672,62.5084 201.5,63.5C 201.563,68.2029 201.229,72.8696 200.5,77.5C 200.167,77.5 199.833,77.5 199.5,77.5C 199.653,71.1308 199.32,64.7974 198.5,58.5 Z"/></g>
<g><path style="opacity:1" fill="#eab135" d="M 194.5,51.5 C 198.676,51.4323 201.009,53.4323 201.5,57.5C 203.537,62.8634 203.87,68.1967 202.5,73.5C 202.813,69.9581 202.479,66.6248 201.5,63.5C 201.672,62.5084 201.338,61.8417 200.5,61.5C 200.975,58.6874 199.975,56.6874 197.5,55.5C 197.167,54.5 196.5,53.8333 195.5,53.5C 195.167,52.8333 194.833,52.1667 194.5,51.5 Z"/></g>
<g><path style="opacity:1" fill="#f2cf90" d="M 178.5,64.5 C 180.027,64.427 181.027,65.0937 181.5,66.5C 181.167,66.5 180.833,66.5 180.5,66.5C 180.167,66.5 179.833,66.5 179.5,66.5C 179.167,65.8333 178.833,65.1667 178.5,64.5 Z"/></g>
<g><path style="opacity:1" fill="#fefce7" d="M 116.5,62.5 C 116.167,62.5 115.833,62.5 115.5,62.5C 107.833,61.1667 100.167,61.1667 92.5,62.5C 91.8826,62.6107 91.3826,62.944 91,63.5C 90.5003,71.8267 90.3336,80.16 90.5,88.5C 85.3054,88.8205 80.3054,88.4872 75.5,87.5C 80.1667,87.5 84.8333,87.5 89.5,87.5C 89.1944,78.4458 89.5278,69.4458 90.5,60.5C 99.1411,59.502 107.808,59.1686 116.5,59.5C 116.5,60.5 116.5,61.5 116.5,62.5 Z"/></g>
<g><path style="opacity:1" fill="#eac05a" d="M 59.5,61.5 C 58.8732,65.4603 56.5399,67.7936 52.5,68.5C 55.1667,66.5 57.5,64.1667 59.5,61.5 Z"/></g>
<g><path style="opacity:1" fill="#f0b12c" d="M 62.5,36.5 C 63.1174,36.6107 63.6174,36.944 64,37.5C 64.5822,41.824 65.0822,46.1573 65.5,50.5C 64.3409,55.0484 63.3409,59.715 62.5,64.5C 61.4822,65.1925 60.4822,65.8592 59.5,66.5C 56.9157,68.4221 54.249,70.2555 51.5,72C 49.8659,72.4935 48.1992,72.6602 46.5,72.5C 48.636,71.3472 50.636,70.0138 52.5,68.5C 56.5399,67.7936 58.8732,65.4603 59.5,61.5C 61.1765,60.8166 61.8432,59.4832 61.5,57.5C 62.3414,55.6208 62.6747,53.6208 62.5,51.5C 63.7508,46.6309 63.7508,41.6309 62.5,36.5 Z"/></g>
<g><path style="opacity:1" fill="#dfb540" d="M 172.5,63.5 C 173.833,63.5 175.167,63.5 176.5,63.5C 176.842,64.3382 177.508,64.6716 178.5,64.5C 178.833,65.1667 179.167,65.8333 179.5,66.5C 176.843,66.0652 174.509,65.0652 172.5,63.5 Z"/></g>
<g><path style="opacity:1" fill="#fdf9e2" d="M 176.5,62.5 C 178.5,62.5 180.5,62.5 182.5,62.5C 182.629,64.2161 182.962,65.8828 183.5,67.5C 182.833,67.1667 182.167,66.8333 181.5,66.5C 181.027,65.0937 180.027,64.427 178.5,64.5C 177.508,64.6716 176.842,64.3382 176.5,63.5C 176.5,63.1667 176.5,62.8333 176.5,62.5 Z"/></g>
<g><path style="opacity:1" fill="#e9b445" d="M 154.5,58.5 C 157.659,60.0795 160.993,61.0795 164.5,61.5C 167.167,62.1667 169.833,62.8333 172.5,63.5C 168.154,63.6657 163.821,63.499 159.5,63C 157.077,62.3029 155.411,60.8029 154.5,58.5 Z"/></g>
<g><path style="opacity:1" fill="#fff3be" d="M 164.5,61.5 C 168.6,61.2367 172.6,61.5701 176.5,62.5C 176.5,62.8333 176.5,63.1667 176.5,63.5C 175.167,63.5 173.833,63.5 172.5,63.5C 169.833,62.8333 167.167,62.1667 164.5,61.5 Z"/></g>
<g><path style="opacity:1" fill="#fbaf17" d="M 136.5,19.5 C 137.479,22.6248 137.813,25.9581 137.5,29.5C 141.307,28.7741 143.974,30.1074 145.5,33.5C 145.183,37.7016 145.517,41.7016 146.5,45.5C 146.339,50.4299 148.005,54.5966 151.5,58C 152.448,58.4828 153.448,58.6495 154.5,58.5C 155.411,60.8029 157.077,62.3029 159.5,63C 163.821,63.499 168.154,63.6657 172.5,63.5C 174.509,65.0652 176.843,66.0652 179.5,66.5C 179.833,66.5 180.167,66.5 180.5,66.5C 180.5,69.1667 180.5,71.8333 180.5,74.5C 178.152,74.6695 175.818,75.0029 173.5,75.5C 170.563,74.5302 167.563,73.8635 164.5,73.5C 163.058,72.1805 162.392,70.5138 162.5,68.5C 160.585,68.2155 158.919,68.5489 157.5,69.5C 156.5,69.5 155.5,69.5 154.5,69.5C 151.006,69.5319 148.339,70.8653 146.5,73.5C 145.307,73.9704 144.64,74.9704 144.5,76.5C 144.719,78.6931 145.385,80.6931 146.5,82.5C 146.229,84.3117 145.562,85.9783 144.5,87.5C 143.313,86.1062 142.646,86.2729 142.5,88C 143.535,88.2526 144.535,89.086 145.5,90.5C 147.138,89.2954 147.471,87.9621 146.5,86.5C 147.365,85.4173 148.365,85.2506 149.5,86C 152.205,88.9501 151.871,91.2834 148.5,93C 148.833,93.3333 149.167,93.6667 149.5,94C 146.485,94.4108 143.818,93.5775 141.5,91.5C 139.022,94.1209 136.689,94.1209 134.5,91.5C 136.285,91.0744 137.285,89.9078 137.5,88C 136.526,65.189 136.192,42.3557 136.5,19.5 Z"/></g>
<g><path style="opacity:1" fill="#e3b54b" d="M 154.5,69.5 C 152.349,71.7184 149.682,73.0517 146.5,73.5C 148.339,70.8653 151.006,69.5319 154.5,69.5 Z"/></g>
<g><path style="opacity:1" fill="#e9bd50" d="M 157.5,69.5 C 158.919,68.5489 160.585,68.2155 162.5,68.5C 162.392,70.5138 163.058,72.1805 164.5,73.5C 164.5,73.8333 164.5,74.1667 164.5,74.5C 163.5,73.8333 162.5,73.1667 161.5,72.5C 161.306,70.0882 159.973,69.0882 157.5,69.5 Z"/></g>
<g><path style="opacity:1" fill="#ebc165" d="M 92.5,62.5 C 100.167,61.1667 107.833,61.1667 115.5,62.5C 115.5,71.5 115.5,80.5 115.5,89.5C 114.507,81.0161 114.174,72.3494 114.5,63.5C 107.352,62.5084 100.019,62.175 92.5,62.5 Z"/></g>
<g><path style="opacity:1" fill="#fffae7" d="M 162.5,59.5 C 167.615,59.5839 172.282,60.5839 176.5,62.5C 172.6,61.5701 168.6,61.2367 164.5,61.5C 163.833,60.8333 163.167,60.1667 162.5,59.5 Z"/></g>
<g><path style="opacity:1" fill="#eccb75" d="M 61.5,57.5 C 61.8432,59.4832 61.1765,60.8166 59.5,61.5C 59.6596,59.847 60.3263,58.5137 61.5,57.5 Z"/></g>
<g><path style="opacity:1" fill="#fcefbb" d="M 148.5,33.5 C 148.334,38.1785 148.501,42.8452 149,47.5C 149.697,49.5844 150.864,51.2511 152.5,52.5C 153.028,53.7206 153.695,54.8873 154.5,56C 157.064,57.3961 159.731,58.5627 162.5,59.5C 163.167,60.1667 163.833,60.8333 164.5,61.5C 160.993,61.0795 157.659,60.0795 154.5,58.5C 151.054,54.5995 148.387,50.2661 146.5,45.5C 146.335,42.1501 146.502,38.8168 147,35.5C 147.278,34.5842 147.778,33.9175 148.5,33.5 Z"/></g>
<g><path style="opacity:1" fill="#fefad7" d="M 61.5,39.5 C 62.4834,43.2984 62.8168,47.2984 62.5,51.5C 62.6747,53.6208 62.3414,55.6208 61.5,57.5C 60.3263,58.5137 59.6596,59.847 59.5,61.5C 57.5,64.1667 55.1667,66.5 52.5,68.5C 50.1667,69.1667 47.8333,69.8333 45.5,70.5C 52.5857,67.0822 57.5857,61.7488 60.5,54.5C 61.4872,49.6946 61.8205,44.6946 61.5,39.5 Z"/></g>
<g><path style="opacity:1" fill="#f9dc97" d="M 197.5,55.5 C 199.975,56.6874 200.975,58.6874 200.5,61.5C 199.833,60.5 199.167,59.5 198.5,58.5C 198.5,57.8333 198.167,57.5 197.5,57.5C 197.5,56.8333 197.5,56.1667 197.5,55.5 Z"/></g>
<g><path style="opacity:1" fill="#ebb53f" d="M 146.5,45.5 C 148.387,50.2661 151.054,54.5995 154.5,58.5C 153.448,58.6495 152.448,58.4828 151.5,58C 148.005,54.5966 146.339,50.4299 146.5,45.5 Z"/></g>
<g><path style="opacity:1" fill="#fdfadb" d="M 170.5,45.5 C 174.5,46.1667 178.5,46.8333 182.5,47.5C 184.657,48.4067 186.99,49.0733 189.5,49.5C 190.802,51.8218 192.802,53.1551 195.5,53.5C 196.5,53.8333 197.167,54.5 197.5,55.5C 197.5,56.1667 197.5,56.8333 197.5,57.5C 191.401,51.9253 184.067,48.9253 175.5,48.5C 173.58,47.9348 171.913,46.9348 170.5,45.5 Z"/></g>
<g><path style="opacity:1" fill="#feebaf" d="M 189.5,49.5 C 190.167,49.5 190.833,49.5 191.5,49.5C 191.973,50.9063 192.973,51.573 194.5,51.5C 194.833,52.1667 195.167,52.8333 195.5,53.5C 192.802,53.1551 190.802,51.8218 189.5,49.5 Z"/></g>
<g><path style="opacity:1" fill="#e6b956" d="M 191.5,49.5 C 193.027,49.427 194.027,50.0937 194.5,51.5C 192.973,51.573 191.973,50.9063 191.5,49.5 Z"/></g>
<g><path style="opacity:1" fill="#fcfdea" d="M 148.5,33.5 C 148.833,33.5 149.167,33.5 149.5,33.5C 149.78,39.9936 150.78,46.3269 152.5,52.5C 150.864,51.2511 149.697,49.5844 149,47.5C 148.501,42.8452 148.334,38.1785 148.5,33.5 Z"/></g>
<g><path style="opacity:1" fill="#e9c160" d="M 182.5,47.5 C 183.833,47.5 185.167,47.5 186.5,47.5C 188.698,47.1201 190.365,47.7868 191.5,49.5C 190.833,49.5 190.167,49.5 189.5,49.5C 186.99,49.0733 184.657,48.4067 182.5,47.5 Z"/></g>
<g><path style="opacity:1" fill="#fab019" d="M 169.5,33.5 C 172.5,33.5 175.5,33.5 178.5,33.5C 179.5,34.1667 180.5,34.8333 181.5,35.5C 181.5,36.1667 181.5,36.8333 181.5,37.5C 181.511,39.0174 182.177,40.1841 183.5,41C 186.555,41.6342 189.555,41.4675 192.5,40.5C 193.93,40.4208 195.264,40.7542 196.5,41.5C 198.008,39.4925 199.842,37.8259 202,36.5C 202.333,36.8333 202.667,37.1667 203,37.5C 203.167,40.8333 203.333,44.1667 203.5,47.5C 203.486,51.2386 202.82,54.572 201.5,57.5C 201.009,53.4323 198.676,51.4323 194.5,51.5C 194.027,50.0937 193.027,49.427 191.5,49.5C 190.365,47.7868 188.698,47.1201 186.5,47.5C 181.518,45.2612 176.184,44.2612 170.5,44.5C 170.5,44.1667 170.5,43.8333 170.5,43.5C 165.63,40.6718 165.297,37.3385 169.5,33.5 Z"/></g>
<g><path style="opacity:1" fill="#e6b54a" d="M 170.5,45.5 C 170.5,45.1667 170.5,44.8333 170.5,44.5C 176.184,44.2612 181.518,45.2612 186.5,47.5C 185.167,47.5 183.833,47.5 182.5,47.5C 178.5,46.8333 174.5,46.1667 170.5,45.5 Z"/></g>
<g><path style="opacity:1" fill="#fbdd90" d="M 61.5,35.5 C 61.8333,35.5 62.1667,35.5 62.5,35.5C 62.5,35.8333 62.5,36.1667 62.5,36.5C 63.7508,41.6309 63.7508,46.6309 62.5,51.5C 62.8168,47.2984 62.4834,43.2984 61.5,39.5C 61.5,38.1667 61.5,36.8333 61.5,35.5 Z"/></g>
<g><path style="opacity:1" fill="#f1ca81" d="M 166.5,43.5 C 167.833,43.5 169.167,43.5 170.5,43.5C 170.5,43.8333 170.5,44.1667 170.5,44.5C 170.5,44.8333 170.5,45.1667 170.5,45.5C 168.847,45.3404 167.514,44.6737 166.5,43.5 Z"/></g>
<g><path style="opacity:1" fill="#e4b34a" d="M 115.5,20.5 C 115.5,28.5 115.5,36.5 115.5,44.5C 111.849,45.1655 108.015,45.4988 104,45.5C 99.771,45.4898 95.9377,44.8232 92.5,43.5C 92.5,36.5 92.5,29.5 92.5,22.5C 92.8333,22.5 93.1667,22.5 93.5,22.5C 93.5,29.5 93.5,36.5 93.5,43.5C 100.5,43.5 107.5,43.5 114.5,43.5C 114.5,36.1667 114.5,28.8333 114.5,21.5C 114.5,20.8333 114.833,20.5 115.5,20.5 Z"/></g>
<g><path style="opacity:1" fill="#fef2c3" d="M 165.5,34.5 C 165.5,34.8333 165.5,35.1667 165.5,35.5C 164.074,38.2992 164.408,40.9658 166.5,43.5C 165.504,43.5858 164.671,43.2524 164,42.5C 163.833,41.1667 163.667,39.8333 163.5,38.5C 163.585,36.6672 164.252,35.3339 165.5,34.5 Z"/></g>
<g><path style="opacity:1" fill="#f3b228" d="M 114.5,21.5 C 114.5,28.8333 114.5,36.1667 114.5,43.5C 107.5,43.5 100.5,43.5 93.5,43.5C 93.5,36.5 93.5,29.5 93.5,22.5C 94.4907,28.979 94.824,35.6457 94.5,42.5C 100.833,42.5 107.167,42.5 113.5,42.5C 113.175,35.3134 113.509,28.3134 114.5,21.5 Z"/></g>
<g><path style="opacity:1" fill="#e7b53b" d="M 197.5,35.5 C 198.167,35.5 198.833,35.5 199.5,35.5C 197.354,37.342 195.021,39.0087 192.5,40.5C 189.555,41.4675 186.555,41.6342 183.5,41C 182.177,40.1841 181.511,39.0174 181.5,37.5C 182.627,38.1217 183.627,38.955 184.5,40C 186.066,40.765 187.399,40.5983 188.5,39.5C 189.995,39.0113 191.329,38.3446 192.5,37.5C 193.167,37.5 193.833,37.5 194.5,37.5C 195.71,37.0679 196.71,36.4013 197.5,35.5 Z"/></g>
<g><path style="opacity:1" fill="#fdfcee" d="M 165.5,33.5 C 165.5,33.8333 165.5,34.1667 165.5,34.5C 164.252,35.3339 163.585,36.6672 163.5,38.5C 163.667,39.8333 163.833,41.1667 164,42.5C 164.671,43.2524 165.504,43.5858 166.5,43.5C 167.514,44.6737 168.847,45.3404 170.5,45.5C 171.913,46.9348 173.58,47.9348 175.5,48.5C 172.65,48.6361 169.817,48.9695 167,49.5C 160.935,48.284 161.102,47.4507 167.5,47C 166.183,45.3409 164.517,44.1743 162.5,43.5C 162.052,39.8978 160.718,36.7311 158.5,34C 158.833,33.5 159.167,33 159.5,32.5C 161.409,33.3482 163.409,33.6816 165.5,33.5 Z"/></g>
<g><path style="opacity:1" fill="#fff9c4" d="M 192.5,37.5 C 191.329,38.3446 189.995,39.0113 188.5,39.5C 187.209,39.7373 186.209,39.404 185.5,38.5C 187.806,38.0074 190.139,37.6741 192.5,37.5 Z"/></g>
<g><path style="opacity:1" fill="#ebc668" d="M 181.5,35.5 C 181.833,35.5 182.167,35.5 182.5,35.5C 183.167,36.8333 184.167,37.8333 185.5,38.5C 186.209,39.404 187.209,39.7373 188.5,39.5C 187.399,40.5983 186.066,40.765 184.5,40C 183.627,38.955 182.627,38.1217 181.5,37.5C 181.5,36.8333 181.5,36.1667 181.5,35.5 Z"/></g>
<g><path style="opacity:1" fill="#e1b441" d="M 169.5,33.5 C 165.297,37.3385 165.63,40.6718 170.5,43.5C 169.167,43.5 167.833,43.5 166.5,43.5C 164.408,40.9658 164.074,38.2992 165.5,35.5C 166.605,34.3995 167.938,33.7329 169.5,33.5 Z"/></g>
<g><path style="opacity:1" fill="#e9b238" d="M 154.5,23.5 C 154.5,23.8333 154.5,24.1667 154.5,24.5C 151.637,27.0103 149.637,30.0103 148.5,33.5C 147.778,33.9175 147.278,34.5842 147,35.5C 146.502,38.8168 146.335,42.1501 146.5,45.5C 145.517,41.7016 145.183,37.7016 145.5,33.5C 146.814,30.4181 148.48,27.4181 150.5,24.5C 151.689,23.5713 153.022,23.238 154.5,23.5 Z"/></g>
<g><path style="opacity:1" fill="#fef3b2" d="M 197.5,35.5 C 196.71,36.4013 195.71,37.0679 194.5,37.5C 194.821,35.9519 195.821,35.2852 197.5,35.5 Z"/></g>
<g><path style="opacity:1" fill="#fdeea5" d="M 197.5,30.5 C 198.167,30.8333 198.833,31.1667 199.5,31.5C 199.5,32.8333 199.5,34.1667 199.5,35.5C 198.833,35.5 198.167,35.5 197.5,35.5C 197.5,33.8333 197.5,32.1667 197.5,30.5 Z"/></g>
<g><path style="opacity:1" fill="#ebcc6f" d="M 58.5,29.5 C 59.9063,29.9731 60.573,30.9731 60.5,32.5C 59.0937,32.0269 58.427,31.0269 58.5,29.5 Z"/></g>
<g><path style="opacity:1" fill="#fbfcee" d="M 192.5,25.5 C 193.806,27.4727 195.473,29.1394 197.5,30.5C 197.5,32.1667 197.5,33.8333 197.5,35.5C 195.821,35.2852 194.821,35.9519 194.5,37.5C 193.833,37.5 193.167,37.5 192.5,37.5C 190.139,37.6741 187.806,38.0074 185.5,38.5C 184.167,37.8333 183.167,36.8333 182.5,35.5C 181.738,33.7376 180.404,32.7376 178.5,32.5C 174.125,31.0352 169.792,31.3686 165.5,33.5C 165.5,32.5 165.5,31.5 165.5,30.5C 168.577,30.6529 171.411,29.9863 174,28.5C 176.591,30.2953 179.257,30.6286 182,29.5C 185.349,30.6765 186.849,33.0098 186.5,36.5C 188.833,36.5 191.167,36.5 193.5,36.5C 193.5,35.5 193.5,34.5 193.5,33.5C 192.5,33.5 191.5,33.5 190.5,33.5C 190.714,31.8561 190.38,30.3561 189.5,29C 191.063,28.2411 192.063,27.0744 192.5,25.5 Z"/></g>
<g><path style="opacity:1" fill="#ffe9b1" d="M 115.5,20.5 C 121.833,20.5 128.167,20.5 134.5,20.5C 134.5,43.5 134.5,66.5 134.5,89.5C 134.167,89.5 133.833,89.5 133.5,89.5C 132.833,89.5 132.167,89.5 131.5,89.5C 131.5,89.1667 131.5,88.8333 131.5,88.5C 133.489,66.525 134.156,44.1917 133.5,21.5C 127.833,21.5 122.167,21.5 116.5,21.5C 116.5,28.8333 116.5,36.1667 116.5,43.5C 116.5,43.8333 116.5,44.1667 116.5,44.5C 116.167,44.5 115.833,44.5 115.5,44.5C 115.5,36.5 115.5,28.5 115.5,20.5 Z"/></g>
<g><path style="opacity:1" fill="#fefced" d="M 49.5,23.5 C 49.8333,23.5 50.1667,23.5 50.5,23.5C 51.8333,24.1667 53.1667,24.8333 54.5,25.5C 54.8333,27.8333 56.1667,29.1667 58.5,29.5C 58.427,31.0269 59.0937,32.0269 60.5,32.5C 60.5569,33.609 60.8902,34.609 61.5,35.5C 61.5,36.8333 61.5,38.1667 61.5,39.5C 61.8205,44.6946 61.4872,49.6946 60.5,54.5C 60.2128,48.6434 60.0461,42.6434 60,36.5C 59.1667,35.5 58.3333,34.5 57.5,33.5C 55.9848,35.5473 55.1515,37.8807 55,40.5C 53.627,38.3046 53.2937,35.9712 54,33.5C 54.3333,33.8333 54.6667,34.1667 55,34.5C 55.9694,31.6715 55.3028,29.3382 53,27.5C 52.0347,29.2603 50.868,29.5937 49.5,28.5C 48.9478,26.9974 48.9478,25.3307 49.5,23.5 Z"/></g>
<g><path style="opacity:1" fill="#fefce8" d="M 131.5,88.5 C 131.212,66.6314 131.545,44.6314 132.5,22.5C 127.5,22.5 122.5,22.5 117.5,22.5C 117.825,29.6866 117.491,36.6866 116.5,43.5C 116.5,36.1667 116.5,28.8333 116.5,21.5C 122.167,21.5 127.833,21.5 133.5,21.5C 134.156,44.1917 133.489,66.525 131.5,88.5 Z"/></g>
<g><path style="opacity:1" fill="#fefeef" d="M 8.5,29.5 C 9.1861,46.8598 9.85277,64.3598 10.5,82C 10.1639,83.0299 9.49722,83.5299 8.5,83.5C 8.5,65.5 8.5,47.5 8.5,29.5 Z"/></g>
<g><path style="opacity:1" fill="#fefbdf" d="M 42.5,21.5 C 43.8333,21.5 45.1667,21.5 46.5,21.5C 46.8333,21.5 47.1667,21.5 47.5,21.5C 47.8333,22.1667 48.1667,22.8333 48.5,23.5C 35.5224,22.6219 22.5224,22.2886 9.5,22.5C 9.55195,24.9029 9.21862,27.2362 8.5,29.5C 8.5,47.5 8.5,65.5 8.5,83.5C 8.5,85.1667 8.5,86.8333 8.5,88.5C 12.8333,88.5 17.1667,88.5 21.5,88.5C 21.5,88.8333 21.5,89.1667 21.5,89.5C 16.8333,89.5 12.1667,89.5 7.5,89.5C 7.5,66.8333 7.5,44.1667 7.5,21.5C 19.1667,21.5 30.8333,21.5 42.5,21.5 Z"/></g>
<g><path style="opacity:1" fill="#ffe4a5" d="M 6.5,20.5 C 7.16667,20.5 7.83333,20.5 8.5,20.5C 20.0123,20.1719 31.3456,20.5052 42.5,21.5C 30.8333,21.5 19.1667,21.5 7.5,21.5C 7.5,44.1667 7.5,66.8333 7.5,89.5C 12.1667,89.5 16.8333,89.5 21.5,89.5C 22.8333,89.5 24.1667,89.5 25.5,89.5C 19.3554,90.4902 13.0221,90.8235 6.5,90.5C 6.5,67.1667 6.5,43.8333 6.5,20.5 Z"/></g>
<g><path style="opacity:1" fill="#fcfdfb" d="M 186.5,21.5 C 186.833,21.5 187.167,21.5 187.5,21.5C 188.129,23.9971 189.796,25.3304 192.5,25.5C 192.063,27.0744 191.063,28.2411 189.5,29C 190.38,30.3561 190.714,31.8561 190.5,33.5C 191.5,33.5 192.5,33.5 193.5,33.5C 193.5,34.5 193.5,35.5 193.5,36.5C 191.167,36.5 188.833,36.5 186.5,36.5C 186.849,33.0098 185.349,30.6765 182,29.5C 179.257,30.6286 176.591,30.2953 174,28.5C 171.411,29.9863 168.577,30.6529 165.5,30.5C 165.5,31.5 165.5,32.5 165.5,33.5C 163.409,33.6816 161.409,33.3482 159.5,32.5C 159.167,33 158.833,33.5 158.5,34C 160.718,36.7311 162.052,39.8978 162.5,43.5C 164.517,44.1743 166.183,45.3409 167.5,47C 161.102,47.4507 160.935,48.284 167,49.5C 169.817,48.9695 172.65,48.6361 175.5,48.5C 184.067,48.9253 191.401,51.9253 197.5,57.5C 198.167,57.5 198.5,57.8333 198.5,58.5C 199.32,64.7974 199.653,71.1308 199.5,77.5C 198.833,77.5 198.167,77.5 197.5,77.5C 195.952,77.8212 195.285,78.8212 195.5,80.5C 191.553,79.7765 188.053,78.1098 185,75.5C 184.708,73.6739 184.875,71.8405 185.5,70C 185.316,68.6244 184.649,67.7911 183.5,67.5C 182.962,65.8828 182.629,64.2161 182.5,62.5C 180.5,62.5 178.5,62.5 176.5,62.5C 172.282,60.5839 167.615,59.5839 162.5,59.5C 159.731,58.5627 157.064,57.3961 154.5,56C 153.695,54.8873 153.028,53.7206 152.5,52.5C 150.78,46.3269 149.78,39.9936 149.5,33.5C 151.126,30.813 153.126,28.313 155.5,26C 165.352,21.4699 175.685,19.9699 186.5,21.5 Z"/></g>
<g><path style="opacity:1" fill="#fadd9e" d="M 178.5,33.5 C 178.5,33.1667 178.5,32.8333 178.5,32.5C 180.404,32.7376 181.738,33.7376 182.5,35.5C 182.167,35.5 181.833,35.5 181.5,35.5C 180.5,34.8333 179.5,34.1667 178.5,33.5 Z"/></g>
<g><path style="opacity:1" fill="#ecc470" d="M 178.5,32.5 C 178.5,32.8333 178.5,33.1667 178.5,33.5C 175.5,33.5 172.5,33.5 169.5,33.5C 167.938,33.7329 166.605,34.3995 165.5,35.5C 165.5,35.1667 165.5,34.8333 165.5,34.5C 165.5,34.1667 165.5,33.8333 165.5,33.5C 169.792,31.3686 174.125,31.0352 178.5,32.5 Z"/></g>
<g><path style="opacity:1" fill="#e7b035" d="M 0.5,1.5 C 0.833333,1.5 1.16667,1.5 1.5,1.5C 1.5,2.5 1.5,3.5 1.5,4.5C 0.840377,37.8502 1.50704,70.8502 3.5,103.5C 3.5,103.833 3.5,104.167 3.5,104.5C 2.5,104.5 1.5,104.5 0.5,104.5C 0.5,70.1667 0.5,35.8333 0.5,1.5 Z"/></g>
<g><path style="opacity:1" fill="#fce1a3" d="M 54.5,25.5 C 54.8333,25.5 55.1667,25.5 55.5,25.5C 56.5,26.8333 57.5,28.1667 58.5,29.5C 56.1667,29.1667 54.8333,27.8333 54.5,25.5 Z"/></g>
<g><path style="opacity:1" fill="#ecb136" d="M 136.5,19.5 C 136.192,42.3557 136.526,65.189 137.5,88C 137.285,89.9078 136.285,91.0744 134.5,91.5C 134.5,90.8333 134.5,90.1667 134.5,89.5C 134.5,66.5 134.5,43.5 134.5,20.5C 128.167,20.5 121.833,20.5 115.5,20.5C 118.258,19.1818 121.424,18.5152 125,18.5C 128.883,18.5719 132.717,18.9052 136.5,19.5 Z"/></g>
<g><path style="opacity:1" fill="#feeead" d="M 92.5,22.5 C 92.5,29.5 92.5,36.5 92.5,43.5C 91.6715,36.6787 91.1715,29.6787 91,22.5C 85.5934,21.5268 80.0934,21.1934 74.5,21.5C 74.5,44.1667 74.5,66.8333 74.5,89.5C 73.6618,89.1583 73.3284,88.4916 73.5,87.5C 73.5,65.1667 73.5,42.8333 73.5,20.5C 79.5092,20.3338 85.5092,20.5005 91.5,21C 92.056,21.3826 92.3893,21.8826 92.5,22.5 Z"/></g>
<g><path style="opacity:1" fill="#eab035" d="M 55.5,25.5 C 56.8333,25.5 58.1667,25.5 59.5,25.5C 60.8846,28.6591 61.8846,31.9925 62.5,35.5C 62.1667,35.5 61.8333,35.5 61.5,35.5C 60.8902,34.609 60.5569,33.609 60.5,32.5C 60.573,30.9731 59.9063,29.9731 58.5,29.5C 57.5,28.1667 56.5,26.8333 55.5,25.5 Z"/></g>
<g><path style="opacity:1" fill="#fff8d6" d="M 92.5,43.5 C 95.9377,44.8232 99.771,45.4898 104,45.5C 108.015,45.4988 111.849,45.1655 115.5,44.5C 115.833,44.5 116.167,44.5 116.5,44.5C 116.586,45.4959 116.252,46.3292 115.5,47C 107.173,47.4997 98.84,47.6664 90.5,47.5C 89.6287,39.2004 89.2953,30.8671 89.5,22.5C 84.8333,22.5 80.1667,22.5 75.5,22.5C 75.5,44.1667 75.5,65.8333 75.5,87.5C 80.3054,88.4872 85.3054,88.8205 90.5,88.5C 90.3336,80.16 90.5003,71.8267 91,63.5C 91.3826,62.944 91.8826,62.6107 92.5,62.5C 92.5,71.1667 92.5,79.8333 92.5,88.5C 92.5,88.8333 92.5,89.1667 92.5,89.5C 86.5907,90.4553 80.5907,90.7886 74.5,90.5C 74.5,90.1667 74.5,89.8333 74.5,89.5C 74.5,66.8333 74.5,44.1667 74.5,21.5C 80.0934,21.1934 85.5934,21.5268 91,22.5C 91.1715,29.6787 91.6715,36.6787 92.5,43.5 Z"/></g>
<g><path style="opacity:1" fill="#e7b647" d="M 44.5,19.5 C 48.1357,19.8185 51.469,20.9852 54.5,23C 55.2524,23.6708 55.5858,24.5041 55.5,25.5C 55.1667,25.5 54.8333,25.5 54.5,25.5C 53.1667,24.8333 51.8333,24.1667 50.5,23.5C 50.0269,22.0937 49.0269,21.427 47.5,21.5C 47.1667,21.5 46.8333,21.5 46.5,21.5C 45.8333,20.8333 45.1667,20.1667 44.5,19.5 Z"/></g>
<g><path style="opacity:1" fill="#fefefc" d="M 116.5,44.5 C 116.5,44.1667 116.5,43.8333 116.5,43.5C 117.491,36.6866 117.825,29.6866 117.5,22.5C 122.5,22.5 127.5,22.5 132.5,22.5C 131.545,44.6314 131.212,66.6314 131.5,88.5C 126.833,88.5 122.167,88.5 117.5,88.5C 117.826,79.6506 117.493,70.9839 116.5,62.5C 116.5,61.5 116.5,60.5 116.5,59.5C 107.808,59.1686 99.1411,59.502 90.5,60.5C 89.5278,69.4458 89.1944,78.4458 89.5,87.5C 84.8333,87.5 80.1667,87.5 75.5,87.5C 75.5,65.8333 75.5,44.1667 75.5,22.5C 80.1667,22.5 84.8333,22.5 89.5,22.5C 89.2953,30.8671 89.6287,39.2004 90.5,47.5C 98.84,47.6664 107.173,47.4997 115.5,47C 116.252,46.3292 116.586,45.4959 116.5,44.5 Z"/></g>
<g><path style="opacity:1" fill="#fdfdfb" d="M 48.5,23.5 C 48.8333,23.5 49.1667,23.5 49.5,23.5C 48.9478,25.3307 48.9478,26.9974 49.5,28.5C 50.868,29.5937 52.0347,29.2603 53,27.5C 55.3028,29.3382 55.9694,31.6715 55,34.5C 54.6667,34.1667 54.3333,33.8333 54,33.5C 53.2937,35.9712 53.627,38.3046 55,40.5C 55.1515,37.8807 55.9848,35.5473 57.5,33.5C 58.3333,34.5 59.1667,35.5 60,36.5C 60.0461,42.6434 60.2128,48.6434 60.5,54.5C 57.5857,61.7488 52.5857,67.0822 45.5,70.5C 44.609,71.1098 43.609,71.4431 42.5,71.5C 36.0738,70.88 30.0738,71.5467 24.5,73.5C 23.5135,78.3196 22.8468,83.3196 22.5,88.5C 22.1667,88.5 21.8333,88.5 21.5,88.5C 17.1667,88.5 12.8333,88.5 8.5,88.5C 8.5,86.8333 8.5,85.1667 8.5,83.5C 9.49722,83.5299 10.1639,83.0299 10.5,82C 9.85277,64.3598 9.1861,46.8598 8.5,29.5C 9.21862,27.2362 9.55195,24.9029 9.5,22.5C 22.5224,22.2886 35.5224,22.6219 48.5,23.5 Z"/></g>
<g><path style="opacity:1" fill="#fef9d2" d="M 40.5,55.5 C 40.4431,56.609 40.1098,57.609 39.5,58.5C 34.6367,58.8195 29.97,58.4861 25.5,57.5C 30.0323,57.8182 34.3656,57.4849 38.5,56.5C 39.1667,56.1667 39.8333,55.8333 40.5,55.5 Z"/></g>
<g><path style="opacity:1" fill="#efc680" d="M 42.5,53.5 C 42.5,53.8333 42.5,54.1667 42.5,54.5C 41.8333,54.8333 41.1667,55.1667 40.5,55.5C 39.8333,55.8333 39.1667,56.1667 38.5,56.5C 38.5,56.1667 38.5,55.8333 38.5,55.5C 38.5,55.1667 38.5,54.8333 38.5,54.5C 39.8333,54.1667 41.1667,53.8333 42.5,53.5 Z"/></g>
<g><path style="opacity:1" fill="#fefded" d="M 23.5,49.5 C 23.3367,51.8568 23.5034,54.1902 24,56.5C 24.3826,57.056 24.8826,57.3893 25.5,57.5C 29.97,58.4861 34.6367,58.8195 39.5,58.5C 35.5014,59.3249 31.3347,59.9916 27,60.5C 23.7113,59.3681 22.2113,57.0347 22.5,53.5C 22.5108,51.9549 22.8442,50.6216 23.5,49.5 Z"/></g>
<g><path style="opacity:1" fill="#fbaf16" d="M 41.5,40.5 C 41.5,44.5 41.5,48.5 41.5,52.5C 39.8212,52.2852 38.8212,52.9519 38.5,54.5C 38.5,54.8333 38.5,55.1667 38.5,55.5C 34.8333,55.5 31.1667,55.5 27.5,55.5C 27.5,49.5 27.5,43.5 27.5,37.5C 30.8499,37.335 34.1832,37.5017 37.5,38C 38.4709,39.4813 39.8042,40.3146 41.5,40.5 Z"/></g>
<g><path style="opacity:1" fill="#e9b138" d="M 36.5,36.5 C 37.8333,36.8333 39.1667,37.1667 40.5,37.5C 40.5569,38.609 40.8902,39.609 41.5,40.5C 39.8042,40.3146 38.4709,39.4813 37.5,38C 34.1832,37.5017 30.8499,37.335 27.5,37.5C 27.5,43.5 27.5,49.5 27.5,55.5C 31.1667,55.5 34.8333,55.5 38.5,55.5C 38.5,55.8333 38.5,56.1667 38.5,56.5C 34.5,56.5 30.5,56.5 26.5,56.5C 26.5,49.8333 26.5,43.1667 26.5,36.5C 29.8333,36.5 33.1667,36.5 36.5,36.5 Z"/></g>
<g><path style="opacity:1" fill="#e5c169" d="M 36.5,36.5 C 33.1667,36.5 29.8333,36.5 26.5,36.5C 26.5,43.1667 26.5,49.8333 26.5,56.5C 30.5,56.5 34.5,56.5 38.5,56.5C 34.3656,57.4849 30.0323,57.8182 25.5,57.5C 25.5,50.1667 25.5,42.8333 25.5,35.5C 29.3714,35.185 33.0381,35.5184 36.5,36.5 Z"/></g>
<g><path style="opacity:1" fill="#fef7d1" d="M 42.5,54.5 C 42.5,54.1667 42.5,53.8333 42.5,53.5C 42.5,52.8333 42.5,52.1667 42.5,51.5C 43.1174,51.3893 43.6174,51.056 44,50.5C 44.6667,47.8333 44.6667,45.1667 44,42.5C 43.7767,40.1192 42.61,38.4525 40.5,37.5C 39.1667,37.1667 37.8333,36.8333 36.5,36.5C 33.0381,35.5184 29.3714,35.185 25.5,35.5C 25.5,42.8333 25.5,50.1667 25.5,57.5C 24.8826,57.3893 24.3826,57.056 24,56.5C 23.5034,54.1902 23.3367,51.8568 23.5,49.5C 23.3342,44.8215 23.5008,40.1548 24,35.5C 31.2854,33.5337 38.1187,34.5337 44.5,38.5C 46.4737,43.4931 46.6403,48.4931 45,53.5C 44.3292,54.2524 43.4959,54.5858 42.5,54.5 Z"/></g>
<g><path style="opacity:1" fill="#ebb230" d="M 41.5,40.5 C 42.4816,43.9619 42.815,47.6286 42.5,51.5C 42.5,52.1667 42.5,52.8333 42.5,53.5C 41.1667,53.8333 39.8333,54.1667 38.5,54.5C 38.8212,52.9519 39.8212,52.2852 41.5,52.5C 41.5,48.5 41.5,44.5 41.5,40.5 Z"/></g>
<g><path style="opacity:1" fill="#e5c061" d="M 40.5,37.5 C 42.61,38.4525 43.7767,40.1192 44,42.5C 44.6667,45.1667 44.6667,47.8333 44,50.5C 43.6174,51.056 43.1174,51.3893 42.5,51.5C 42.815,47.6286 42.4816,43.9619 41.5,40.5C 40.8902,39.609 40.5569,38.609 40.5,37.5 Z"/></g>
<g><path style="opacity:1" fill="#fff5d0" d="M 186.5,21.5 C 175.685,19.9699 165.352,21.4699 155.5,26C 153.126,28.313 151.126,30.813 149.5,33.5C 149.167,33.5 148.833,33.5 148.5,33.5C 149.637,30.0103 151.637,27.0103 154.5,24.5C 156.848,24.4077 158.514,23.4077 159.5,21.5C 161.403,21.2041 163.07,20.5375 164.5,19.5C 172.179,17.7811 179.512,18.4478 186.5,21.5 Z"/></g>
<g><path style="opacity:1" fill="#e8b33e" d="M 93.5,22.5 C 93.1667,22.5 92.8333,22.5 92.5,22.5C 92.3893,21.8826 92.056,21.3826 91.5,21C 85.5092,20.5005 79.5092,20.3338 73.5,20.5C 73.5,42.8333 73.5,65.1667 73.5,87.5C 71.7773,85.22 71.1107,82.5533 71.5,79.5C 71.3334,59.8305 71.5,40.1638 72,20.5C 75.233,19.2136 78.733,18.547 82.5,18.5C 85.8333,18.8333 89.1667,19.1667 92.5,19.5C 93.1272,20.4168 93.4606,21.4168 93.5,22.5 Z"/></g>
<g><path style="opacity:1" fill="#fcaf16" d="M 4.5,1.5 C 70.5008,1.33334 136.501,1.5 202.5,2C 203,2.5 203.5,3 204,3.5C 204.498,6.81677 204.665,10.1501 204.5,13.5C 203.672,19.3193 203.172,25.3193 203,31.5C 201.374,30.0445 200.208,28.3779 199.5,26.5C 197.483,25.4706 195.483,24.4706 193.5,23.5C 192.833,23.5 192.167,23.5 191.5,23.5C 191.167,22.8333 190.833,22.1667 190.5,21.5C 189.517,20.1497 188.184,19.1497 186.5,18.5C 178.521,17.3351 170.521,17.1684 162.5,18C 160.167,19 157.833,20 155.5,21C 154.748,21.6708 154.414,22.5041 154.5,23.5C 153.022,23.238 151.689,23.5713 150.5,24.5C 148.48,27.4181 146.814,30.4181 145.5,33.5C 143.974,30.1074 141.307,28.7741 137.5,29.5C 137.813,25.9581 137.479,22.6248 136.5,19.5C 132.717,18.9052 128.883,18.5719 125,18.5C 121.424,18.5152 118.258,19.1818 115.5,20.5C 114.833,20.5 114.5,20.8333 114.5,21.5C 113.509,28.3134 113.175,35.3134 113.5,42.5C 107.167,42.5 100.833,42.5 94.5,42.5C 94.824,35.6457 94.4907,28.979 93.5,22.5C 93.4606,21.4168 93.1272,20.4168 92.5,19.5C 89.1667,19.1667 85.8333,18.8333 82.5,18.5C 78.733,18.547 75.233,19.2136 72,20.5C 71.5,40.1638 71.3334,59.8305 71.5,79.5C 70.5902,81.0188 69.7568,82.6854 69,84.5C 68.2904,83.0267 67.1238,82.3601 65.5,82.5C 65.3367,80.1432 65.5034,77.8098 66,75.5C 66.3333,75.8333 66.6667,76.1667 67,76.5C 68.8251,69.7232 68.8251,63.0565 67,56.5C 66.2114,60.0915 66.3781,63.5915 67.5,67C 66.7734,68.3988 66.2734,69.8988 66,71.5C 65,70.1667 64,68.8333 63,67.5C 60.8223,70.4685 59.6556,70.1351 59.5,66.5C 60.4822,65.8592 61.4822,65.1925 62.5,64.5C 63.3409,59.715 64.3409,55.0484 65.5,50.5C 65.0822,46.1573 64.5822,41.824 64,37.5C 63.6174,36.944 63.1174,36.6107 62.5,36.5C 62.5,36.1667 62.5,35.8333 62.5,35.5C 61.8846,31.9925 60.8846,28.6591 59.5,25.5C 58.1667,25.5 56.8333,25.5 55.5,25.5C 55.5858,24.5041 55.2524,23.6708 54.5,23C 51.469,20.9852 48.1357,19.8185 44.5,19.5C 31.8333,18.1667 19.1667,18.1667 6.5,19.5C 4.90693,20.3479 3.74026,21.6813 3,23.5C 2.2466,19.609 2.7466,15.9423 4.5,12.5C 3.33162,8.83685 3.33162,5.17018 4.5,1.5 Z"/></g>
<g><path style="opacity:1" fill="#e9b13a" d="M 193.5,23.5 C 195.483,24.4706 197.483,25.4706 199.5,26.5C 199.5,28.1667 199.5,29.8333 199.5,31.5C 198.833,31.1667 198.167,30.8333 197.5,30.5C 196.194,28.1838 194.861,25.8505 193.5,23.5 Z"/></g>
<g><path style="opacity:1" fill="#fdecac" d="M 191.5,23.5 C 192.167,23.5 192.833,23.5 193.5,23.5C 194.861,25.8505 196.194,28.1838 197.5,30.5C 195.473,29.1394 193.806,27.4727 192.5,25.5C 192.167,24.8333 191.833,24.1667 191.5,23.5 Z"/></g>
<g><path style="opacity:1" fill="#fffbda" d="M 187.5,21.5 C 187.833,21.5 188.167,21.5 188.5,21.5C 188.973,22.9063 189.973,23.573 191.5,23.5C 191.833,24.1667 192.167,24.8333 192.5,25.5C 189.796,25.3304 188.129,23.9971 187.5,21.5 Z"/></g>
<g><path style="opacity:1" fill="#f9e29e" d="M 159.5,21.5 C 158.514,23.4077 156.848,24.4077 154.5,24.5C 154.5,24.1667 154.5,23.8333 154.5,23.5C 156.05,22.5592 157.716,21.8925 159.5,21.5 Z"/></g>
<g><path style="opacity:1" fill="#f3d984" d="M 188.5,21.5 C 189.167,21.5 189.833,21.5 190.5,21.5C 190.833,22.1667 191.167,22.8333 191.5,23.5C 189.973,23.573 188.973,22.9063 188.5,21.5 Z"/></g>
<g><path style="opacity:1" fill="#fcdda3" d="M 47.5,21.5 C 49.0269,21.427 50.0269,22.0937 50.5,23.5C 50.1667,23.5 49.8333,23.5 49.5,23.5C 49.1667,23.5 48.8333,23.5 48.5,23.5C 48.1667,22.8333 47.8333,22.1667 47.5,21.5 Z"/></g>
<g><path style="opacity:1" fill="#e9c266" d="M 8.5,20.5 C 20.3217,19.5049 32.3217,19.1716 44.5,19.5C 45.1667,20.1667 45.8333,20.8333 46.5,21.5C 45.1667,21.5 43.8333,21.5 42.5,21.5C 31.3456,20.5052 20.0123,20.1719 8.5,20.5 Z"/></g>
<g><path style="opacity:1" fill="#e6b33f" d="M 190.5,21.5 C 189.833,21.5 189.167,21.5 188.5,21.5C 188.167,21.5 187.833,21.5 187.5,21.5C 187.167,21.5 186.833,21.5 186.5,21.5C 179.512,18.4478 172.179,17.7811 164.5,19.5C 162.302,19.1201 160.635,19.7868 159.5,21.5C 157.716,21.8925 156.05,22.5592 154.5,23.5C 154.414,22.5041 154.748,21.6708 155.5,21C 157.833,20 160.167,19 162.5,18C 170.521,17.1684 178.521,17.3351 186.5,18.5C 188.184,19.1497 189.517,20.1497 190.5,21.5 Z"/></g>
<g><path style="opacity:1" fill="#edcb78" d="M 164.5,19.5 C 163.07,20.5375 161.403,21.2041 159.5,21.5C 160.635,19.7868 162.302,19.1201 164.5,19.5 Z"/></g>
<g><path style="opacity:1" fill="#eaae30" d="M 44.5,19.5 C 32.3217,19.1716 20.3217,19.5049 8.5,20.5C 7.83333,20.5 7.16667,20.5 6.5,20.5C 6.5,20.1667 6.5,19.8333 6.5,19.5C 19.1667,18.1667 31.8333,18.1667 44.5,19.5 Z"/></g>
<g><path style="opacity:1" fill="#deae3e" d="M 0.5,-0.5 C 68.8333,-0.5 137.167,-0.5 205.5,-0.5C 205.5,-0.166667 205.5,0.166667 205.5,0.5C 137.331,0.167493 69.3313,0.500826 1.5,1.5C 1.16667,1.5 0.833333,1.5 0.5,1.5C 0.5,0.833333 0.5,0.166667 0.5,-0.5 Z"/></g>
</svg>
